<svg xmlns="http://www.w3.org/2000/svg" viewBox="0 0 64 64" x="0px" y="0px"><g><path d="M62,24.5a2.481,2.481,0,0,0-.646-1.662A2.97,2.97,0,0,0,62,21,13.015,13.015,0,0,0,49,8H15A13.015,13.015,0,0,0,2,21a2.97,2.97,0,0,0,.646,1.838A2.481,2.481,0,0,0,2,24.5a3.5,3.5,0,0,0,2.11,3.209,4.458,4.458,0,0,0-.872,6.874,2.968,2.968,0,0,0-.159,4.7,3.952,3.952,0,0,0,0,5.429A2.981,2.981,0,0,0,2,47a9.01,9.01,0,0,0,9,9H53a9.01,9.01,0,0,0,9-9,2.981,2.981,0,0,0-1.08-2.286,3.958,3.958,0,0,0-.539-5.91,2.943,2.943,0,0,0-.131-3.768,4.461,4.461,0,0,0-.353-7.331A3.5,3.5,0,0,0,62,24.5ZM36,38H32.88a3.009,3.009,0,0,0-2.212.973l-5.871,6.4-3.123,3.407a1,1,0,0,1-1.443.031L15.414,44l-5.121-5.121A2.98,2.98,0,0,0,8.172,38H5a1,1,0,0,1,0-2H58a1,1,0,0,1,0,2H52a3,3,0,0,0-3,3,1,1,0,0,1-2,0,3,3,0,0,0-6,0v6a1,1,0,0,1-2,0V41A3,3,0,0,0,36,38Zm1,3v3H28.773l3.369-3.676A1,1,0,0,1,32.88,40H36A1,1,0,0,1,37,41ZM6,40H8.172a1.009,1.009,0,0,1,.707.293L12.586,44H6a2,2,0,0,1,0-4ZM53,54H11a7.008,7.008,0,0,1-7-7,1,1,0,0,1,1-1h9.586l4.23,4.23a2.97,2.97,0,0,0,2.118.879H21a2.973,2.973,0,0,0,2.146-.972L26.94,46H37v1a3,3,0,0,0,6,0V46H59a1,1,0,0,1,1,1A7.008,7.008,0,0,1,53,54Zm5-10H43V41a1,1,0,0,1,2,0,3,3,0,0,0,6,0,1,1,0,0,1,1-1h6a2,2,0,0,1,0,4Zm2-12.5A2.5,2.5,0,0,1,57.5,34H6.5a2.5,2.5,0,0,1-.357-4.975A2.535,2.535,0,0,1,6.5,29H7.586l1.94,1.94a3.5,3.5,0,0,0,4.949,0l1.465-1.464a1.5,1.5,0,0,1,2.121,0l1.465,1.465a3.5,3.5,0,0,0,4.949,0l1.465-1.464a1.5,1.5,0,0,1,2.121,0l1.465,1.465a3.5,3.5,0,0,0,4.949,0l1.465-1.464a1.5,1.5,0,0,1,2.121,0l1.465,1.465a3.5,3.5,0,0,0,4.949,0l1.465-1.464a1.5,1.5,0,0,1,2.121,0l1.465,1.465a3.505,3.505,0,0,0,4.949,0L56.414,29H57.5A2.5,2.5,0,0,1,60,31.5ZM58.5,26h-.465a3.474,3.474,0,0,0-2.475,1.025l-2.5,2.5a1.5,1.5,0,0,1-2.121,0L49.475,28.06a3.505,3.505,0,0,0-4.949,0l-1.465,1.464a1.5,1.5,0,0,1-2.121,0L39.475,28.06a3.5,3.5,0,0,0-4.949,0l-1.465,1.464a1.5,1.5,0,0,1-2.121,0L29.475,28.06a3.5,3.5,0,0,0-4.949,0l-1.465,1.464a1.5,1.5,0,0,1-2.121,0L19.475,28.06a3.5,3.5,0,0,0-4.949,0l-1.465,1.464a1.5,1.5,0,0,1-2.121,0l-2.5-2.5A3.472,3.472,0,0,0,5.965,26H5.5A1.5,1.5,0,0,1,4,24.5a.5.5,0,0,1,.5-.5h55a.5.5,0,0,1,.5.5A1.5,1.5,0,0,1,58.5,26Zm.5-4H5a1,1,0,0,1-1-1A11.012,11.012,0,0,1,15,10H49A11.012,11.012,0,0,1,60,21,1,1,0,0,1,59,22Z"></path><rect x="15" y="12" width="2" height="2"></rect><rect x="19" y="16" width="2" height="2"></rect><rect x="23" y="12" width="2" height="2"></rect><rect x="27" y="16" width="2" height="2"></rect><rect x="31" y="12" width="2" height="2"></rect><rect x="35" y="16" width="2" height="2"></rect><rect x="39" y="12" width="2" height="2"></rect><rect x="43" y="16" width="2" height="2"></rect><rect x="47" y="12" width="2" height="2"></rect></g></svg>